<svg width="32" height="32" viewBox="0 0 32 32" fill="none" xmlns="http://www.w3.org/2000/svg">
<rect width="32" height="32" rx="16" fill="#197A56"/>
<path d="M10.9055 10.5877C12.0447 9.54518 13.9921 10.1723 15.2877 9.33223C15.8091 8.99386 16.161 8.4543 16.5768 7.99052C17.2533 7.23409 18.1801 6.64227 19.1942 6.60438C20.2083 6.5665 21.2758 7.20404 21.5156 8.19171C21.8428 9.53734 20.6593 10.7275 19.6217 11.642C19.3936 11.8432 19.1446 12.0993 19.1824 12.4024C19.2163 12.6728 19.4692 12.8596 19.7143 12.9785C20.7505 13.4828 22.0266 13.4044 22.9833 14.0485C23.9427 14.6952 24.3389 15.9049 24.5462 17.0455C24.7782 18.3192 24.7273 19.8935 23.6285 20.5755C22.269 21.4207 20.1926 20.2959 19.013 21.3789C18.3965 21.9459 18.3248 22.8787 17.9663 23.6365C17.3941 24.8475 15.9681 25.587 14.6516 25.3544C13.3351 25.1219 12.2455 23.9395 12.1203 22.6057C12.0851 22.2333 12.1164 21.8466 11.9952 21.4926C11.6328 20.437 10.2251 20.4474 9.12759 20.2541C6.42944 19.7798 7.40181 16.9475 8.266 16.2681C10.2121 14.7409 9.23968 12.1123 10.9068 10.5877H10.9055Z" fill="white"/>
</svg>
