<svg width="22" height="23" viewBox="0 0 22 23" fill="none" xmlns="http://www.w3.org/2000/svg">
<rect x="1" y="1.5" width="19.5704" height="20" rx="9.7852" fill="#FF6000"/>
<rect x="0.5" y="1" width="20.5704" height="21" rx="10.2852" stroke="white" stroke-opacity="0.1"/>
<path d="M16.1247 10.4436H15.6254C15.4983 9.84992 15.2641 9.29617 14.9459 8.80155L15.2998 8.44682C15.5075 8.23864 15.5075 7.90223 15.2998 7.69406L14.5696 6.96212C14.3619 6.75394 14.0263 6.75394 13.8186 6.96212L13.4647 7.31685C12.9721 6.99792 12.4188 6.76393 11.8265 6.6357V6.13524C11.8265 5.8413 11.5889 5.60315 11.2957 5.60315H10.2622C9.96898 5.60315 9.73139 5.8413 9.73139 6.13524V6.6357C9.13908 6.7631 8.58664 6.99792 8.09319 7.31685L7.7393 6.96212C7.53161 6.75394 7.196 6.75394 6.98831 6.96212L6.2581 7.69406C6.05042 7.90223 6.05042 8.23864 6.2581 8.44682L6.61199 8.80155C6.29382 9.29534 6.06038 9.84992 5.93245 10.4436H5.43318C5.13993 10.4436 4.90234 10.6818 4.90234 10.9757V12.0116C4.90234 12.3055 5.13993 12.5437 5.43318 12.5437H5.93245C6.05955 13.1374 6.29382 13.6912 6.61199 14.1858L6.2581 14.5405C6.05042 14.7487 6.05042 15.0851 6.2581 15.2933L6.98831 16.0252C7.196 16.2334 7.53161 16.2334 7.7393 16.0252L8.09319 15.6705C8.58581 15.9894 9.13908 16.2234 9.73139 16.3516V16.8521C9.73139 17.146 9.96898 17.3842 10.2622 17.3842H11.2957C11.5889 17.3842 11.8265 17.146 11.8265 16.8521V16.3516C12.4188 16.2242 12.9712 15.9894 13.4647 15.6705L13.8186 16.0252C14.0263 16.2334 14.3619 16.2334 14.5696 16.0252L15.2998 15.2933C15.5075 15.0851 15.5075 14.7487 15.2998 14.5405L14.9459 14.1858C15.2641 13.692 15.4975 13.1374 15.6254 12.5437H16.1247C16.418 12.5437 16.6555 12.3055 16.6555 12.0116V10.9757C16.6555 10.6818 16.418 10.4436 16.1247 10.4436ZM10.7789 13.8852C9.4614 13.8852 8.39308 12.8143 8.39308 11.4937C8.39308 10.173 9.4614 9.10215 10.7789 9.10215C12.0965 9.10215 13.1648 10.173 13.1648 11.4937C13.1648 12.8143 12.0965 13.8852 10.7789 13.8852Z" fill="white"/>
</svg>
