<svg width="36" height="36" viewBox="0 0 36 36" fill="none" xmlns="http://www.w3.org/2000/svg">
<rect x="2" y="2" width="32" height="32" rx="16" fill="#FF54D4"/>
<rect x="1.2" y="1.2" width="33.6" height="33.6" rx="16.8" stroke="white" stroke-opacity="0.1" stroke-width="1.6"/>
<path d="M22.0852 14.979C22.061 17.2137 20.2459 19.0174 18.0094 19.0174C15.7728 19.0174 13.9578 17.2137 13.9335 14.979H8.625C8.64927 20.1495 12.8414 24.3338 18.0094 24.3338C23.1773 24.3338 27.3695 20.1495 27.3937 14.979H22.0852Z" fill="white"/>
<path d="M18.0094 18.3113C19.847 18.3113 21.3368 16.8194 21.3368 14.979C21.3368 13.1386 19.847 11.6467 18.0094 11.6467C16.1717 11.6467 14.682 13.1386 14.682 14.979C14.682 16.8194 16.1717 18.3113 18.0094 18.3113Z" fill="white"/>
</svg>
