<svg width="22" height="23" viewBox="0 0 22 23" fill="none" xmlns="http://www.w3.org/2000/svg">
<rect x="1" y="1.5" width="20" height="20" rx="10" fill="#322E81"/>
<rect x="0.5" y="1" width="21" height="21" rx="10.5" stroke="white" stroke-opacity="0.1"/>
<path d="M16.2755 12.2571C15.7914 11.9336 15.3079 11.6747 14.7846 11.4979L14.779 11.4965C14.779 11.4965 14.779 11.4916 14.779 11.4895C14.779 10.9667 14.674 10.4693 14.4837 10.016C14.6481 9.80482 14.8119 9.59292 14.9693 9.37681C15.1554 9.12141 15.3072 8.83374 15.4569 8.55518C15.6381 8.2191 15.8655 7.50482 15.2946 7.39677C14.9574 7.33292 14.6355 7.46483 14.334 7.60305C14.0485 7.73426 13.7785 7.89564 13.5175 8.07035C13.3874 8.15805 13.2593 8.24927 13.132 8.34188L13.1257 8.3482C12.6184 7.99948 12.0223 7.77074 11.3786 7.70409C11.1799 7.22837 10.956 6.76388 10.6902 6.32044C10.5516 6.0889 10.4012 5.82999 10.1591 5.69387C9.91076 5.55425 9.64279 5.64195 9.48537 5.87139C9.16212 6.3429 9.2118 6.99753 9.24258 7.5392C9.25168 7.70549 9.26357 7.87178 9.27897 8.03737L9.28876 8.08298C8.63738 8.40924 8.09235 8.91794 7.72083 9.5424C6.88544 9.44347 5.82266 9.28279 5.21046 10.0581C5.04884 10.317 5.14609 10.6405 5.3392 10.8671C5.56519 11.1583 5.85555 11.3526 6.17809 11.5463C6.53071 11.7364 6.87704 11.9041 7.22757 12.0529C7.29614 12.5167 7.44796 12.9524 7.66766 13.346L7.62568 13.3846C7.28145 13.8196 6.91133 14.2645 6.74691 14.8047C6.60838 15.258 6.60068 15.9302 7.1786 16.06C7.49554 16.1316 7.81808 16.0039 8.10704 15.8846C8.40859 15.7604 8.69265 15.599 8.97042 15.4285C9.17752 15.3015 9.37902 15.1668 9.57632 15.0265C9.96463 15.1822 10.3844 15.2748 10.8238 15.2931L10.8315 15.3303C11.0274 15.893 11.2632 16.4697 11.676 16.9097C12.0027 17.2584 12.5576 17.5924 12.9536 17.1482C13.2726 16.7911 13.295 16.2368 13.309 15.7828C13.3216 15.3654 13.3034 14.9479 13.2628 14.5325C13.614 14.2673 13.917 13.9424 14.1584 13.5734C14.8335 13.6358 15.4849 13.6604 16.1769 13.5839C16.4351 13.5516 16.6932 13.4871 16.822 13.2281C17.0158 12.8079 16.596 12.4521 16.2734 12.2578L16.2755 12.2571Z" fill="white"/>
</svg>
