<svg width="113" height="112" viewBox="0 0 113 112" fill="none" xmlns="http://www.w3.org/2000/svg">
<g clip-path="url(#clip0_4384_45237)">
<path d="M19.7427 3.26953H93.5552C102.296 3.26953 109.382 10.3559 109.382 19.0967V92.9092C109.382 101.65 102.296 108.736 93.5552 108.736H19.7427C11.0019 108.736 3.91553 101.65 3.91553 92.9092V19.0967C3.91553 10.3559 11.0019 3.26953 19.7427 3.26953Z" fill="white" stroke="#323232" stroke-width="6.53333"/>
<path d="M47.6131 27.7555C47.6131 24.5733 45.6761 21.6678 42.7706 20.4918C39.7959 19.2466 36.4062 19.9383 34.1924 22.2212C31.9096 24.5041 31.287 27.8939 32.463 30.7994C33.7082 33.774 36.5445 35.6419 39.7267 35.6419C44.085 35.6419 47.6131 32.1138 47.6131 27.7555Z" fill="#323232"/>
<path d="M63.9492 27.7516C63.9492 30.9338 65.8862 33.8393 68.8609 35.0153C71.8356 36.2605 75.2253 35.5688 77.439 33.2859C79.7219 31.003 80.3445 27.6132 79.0993 24.7077C77.8541 21.7331 74.9486 19.8652 71.7664 19.8652C67.4081 19.8652 63.9492 23.3933 63.9492 27.7516Z" fill="#323232"/>
<path d="M57.0185 73.4088H57.0876C59.7856 75.0691 62.6911 76.3143 65.735 77.1445L67.2569 89.0432C67.4644 90.7727 68.9172 92.087 70.6466 92.087H72.9987C74.7282 92.087 76.2501 90.7727 76.3885 89.0432L77.8412 77.1445C80.9542 76.3143 83.8597 75.0691 86.5577 73.3397C87.9413 72.5095 88.5639 70.7801 88.0104 69.2581L80.0549 45.1148C78.9481 41.7943 75.835 39.5806 72.3761 39.5806H71.0617C67.6028 39.5806 64.4897 41.7943 63.3829 45.1148L55.4274 69.2581C54.9431 70.7801 55.5657 72.4404 56.9493 73.2705L57.0185 73.4088Z" fill="#323232"/>
<path d="M27.0679 50.0291L27.2754 61.7203C27.2754 63.173 28.1055 64.4874 29.3508 65.1792L31.7028 66.4936L34.5392 89.3917C34.7467 90.9136 35.9919 92.0897 37.583 92.0897H41.9412C43.4632 92.0897 44.7776 90.9136 44.9851 89.3917L47.8214 66.4936L50.1735 65.1792C51.4187 64.4874 52.1797 63.173 52.2488 61.7203L52.4564 50.0291C52.4564 47.262 51.4187 44.6332 49.5509 42.6962C47.6139 40.7592 44.9851 39.6523 42.2871 39.6523H37.3755C34.6083 39.6523 32.0487 40.7592 30.1117 42.6962C28.1747 44.6332 27.137 47.262 27.2062 50.0291H27.0679Z" fill="#323232"/>
</g>
<defs>
<clipPath id="clip0_4384_45237">
<rect width="112" height="112" fill="white" transform="translate(0.642578 0.00537109)"/>
</clipPath>
</defs>
</svg>
