<svg width="2560" height="6064" viewBox="0 0 2560 6064" fill="none" xmlns="http://www.w3.org/2000/svg">
<g filter="url(#filter0_dd_4349_45302)">
<path d="M1023.2 2084H987.2C976.155 2084 967.2 2092.95 967.2 2104V2140C967.2 2151.05 976.155 2160 987.2 2160H1023.2C1034.25 2160 1043.2 2151.05 1043.2 2140V2104C1043.2 2092.95 1034.25 2084 1023.2 2084Z" fill="#21BF61"/>
<path d="M987.2 2086H1023.2C1033.14 2086 1041.2 2094.06 1041.2 2104V2140C1041.2 2149.94 1033.14 2158 1023.2 2158H987.2C977.259 2158 969.2 2149.94 969.2 2140V2104C969.2 2094.06 977.259 2086 987.2 2086Z" stroke="#D4D4D4" stroke-opacity="0.4" stroke-width="4"/>
</g>
<defs>
<filter id="filter0_dd_4349_45302" x="919.2" y="2076" width="172" height="172" filterUnits="userSpaceOnUse" color-interpolation-filters="sRGB">
<feFlood flood-opacity="0" result="BackgroundImageFix"/>
<feColorMatrix in="SourceAlpha" type="matrix" values="0 0 0 0 0 0 0 0 0 0 0 0 0 0 0 0 0 0 127 0" result="hardAlpha"/>
<feMorphology radius="8" operator="erode" in="SourceAlpha" result="effect1_dropShadow_4349_45302"/>
<feOffset dy="16"/>
<feGaussianBlur stdDeviation="12"/>
<feColorMatrix type="matrix" values="0 0 0 0 0 0 0 0 0 0 0 0 0 0 0 0 0 0 0.05 0"/>
<feBlend mode="normal" in2="BackgroundImageFix" result="effect1_dropShadow_4349_45302"/>
<feColorMatrix in="SourceAlpha" type="matrix" values="0 0 0 0 0 0 0 0 0 0 0 0 0 0 0 0 0 0 127 0" result="hardAlpha"/>
<feMorphology radius="12" operator="erode" in="SourceAlpha" result="effect2_dropShadow_4349_45302"/>
<feOffset dy="40"/>
<feGaussianBlur stdDeviation="30"/>
<feColorMatrix type="matrix" values="0 0 0 0 0 0 0 0 0 0 0 0 0 0 0 0 0 0 0.1 0"/>
<feBlend mode="normal" in2="effect1_dropShadow_4349_45302" result="effect2_dropShadow_4349_45302"/>
<feBlend mode="normal" in="SourceGraphic" in2="effect2_dropShadow_4349_45302" result="shape"/>
</filter>
</defs>
</svg>
