<svg width="2560" height="6064" viewBox="0 0 2560 6064" fill="none" xmlns="http://www.w3.org/2000/svg">
<g filter="url(#filter0_dd_4573_2911)">
<path d="M223 504L223 624C223 635.046 231.954 644 243 644L363 644C374.046 644 383 635.046 383 624L383 504C383 492.954 374.046 484 363 484L243 484C231.954 484 223 492.954 223 504Z" fill="#21BF61"/>
<path d="M225 624L225 504C225 494.059 233.059 486 243 486L363 486C372.941 486 381 494.059 381 504L381 624C381 633.941 372.941 642 363 642L243 642C233.059 642 225 633.941 225 624Z" stroke="#D4D4D4" stroke-opacity="0.4" stroke-width="4"/>
</g>
<defs>
<filter id="filter0_dd_4573_2911" x="175" y="476" width="256" height="256" filterUnits="userSpaceOnUse" color-interpolation-filters="sRGB">
<feFlood flood-opacity="0" result="BackgroundImageFix"/>
<feColorMatrix in="SourceAlpha" type="matrix" values="0 0 0 0 0 0 0 0 0 0 0 0 0 0 0 0 0 0 127 0" result="hardAlpha"/>
<feMorphology radius="8" operator="erode" in="SourceAlpha" result="effect1_dropShadow_4573_2911"/>
<feOffset dy="16"/>
<feGaussianBlur stdDeviation="12"/>
<feColorMatrix type="matrix" values="0 0 0 0 0 0 0 0 0 0 0 0 0 0 0 0 0 0 0.05 0"/>
<feBlend mode="normal" in2="BackgroundImageFix" result="effect1_dropShadow_4573_2911"/>
<feColorMatrix in="SourceAlpha" type="matrix" values="0 0 0 0 0 0 0 0 0 0 0 0 0 0 0 0 0 0 127 0" result="hardAlpha"/>
<feMorphology radius="12" operator="erode" in="SourceAlpha" result="effect2_dropShadow_4573_2911"/>
<feOffset dy="40"/>
<feGaussianBlur stdDeviation="30"/>
<feColorMatrix type="matrix" values="0 0 0 0 0 0 0 0 0 0 0 0 0 0 0 0 0 0 0.1 0"/>
<feBlend mode="normal" in2="effect1_dropShadow_4573_2911" result="effect2_dropShadow_4573_2911"/>
<feBlend mode="normal" in="SourceGraphic" in2="effect2_dropShadow_4573_2911" result="shape"/>
</filter>
</defs>
</svg>
