<svg width="2560" height="6064" viewBox="0 0 2560 6064" fill="none" xmlns="http://www.w3.org/2000/svg">
<g filter="url(#filter0_dd_4573_2911)">
<path d="M603 3790V3910C603 3921.05 611.954 3930 623 3930H743C754.046 3930 763 3921.05 763 3910V3790C763 3778.95 754.046 3770 743 3770H623C611.954 3770 603 3778.95 603 3790Z" fill="#21BF61"/>
<path d="M605 3910V3790C605 3780.06 613.059 3772 623 3772H743C752.941 3772 761 3780.06 761 3790V3910C761 3919.94 752.941 3928 743 3928H623C613.059 3928 605 3919.94 605 3910Z" stroke="#D4D4D4" stroke-opacity="0.4" stroke-width="4"/>
</g>
<defs>
<filter id="filter0_dd_4573_2911" x="555" y="3762" width="256" height="256" filterUnits="userSpaceOnUse" color-interpolation-filters="sRGB">
<feFlood flood-opacity="0" result="BackgroundImageFix"/>
<feColorMatrix in="SourceAlpha" type="matrix" values="0 0 0 0 0 0 0 0 0 0 0 0 0 0 0 0 0 0 127 0" result="hardAlpha"/>
<feMorphology radius="8" operator="erode" in="SourceAlpha" result="effect1_dropShadow_4573_2911"/>
<feOffset dy="16"/>
<feGaussianBlur stdDeviation="12"/>
<feColorMatrix type="matrix" values="0 0 0 0 0 0 0 0 0 0 0 0 0 0 0 0 0 0 0.05 0"/>
<feBlend mode="normal" in2="BackgroundImageFix" result="effect1_dropShadow_4573_2911"/>
<feColorMatrix in="SourceAlpha" type="matrix" values="0 0 0 0 0 0 0 0 0 0 0 0 0 0 0 0 0 0 127 0" result="hardAlpha"/>
<feMorphology radius="12" operator="erode" in="SourceAlpha" result="effect2_dropShadow_4573_2911"/>
<feOffset dy="40"/>
<feGaussianBlur stdDeviation="30"/>
<feColorMatrix type="matrix" values="0 0 0 0 0 0 0 0 0 0 0 0 0 0 0 0 0 0 0.1 0"/>
<feBlend mode="normal" in2="effect1_dropShadow_4573_2911" result="effect2_dropShadow_4573_2911"/>
<feBlend mode="normal" in="SourceGraphic" in2="effect2_dropShadow_4573_2911" result="shape"/>
</filter>
</defs>
</svg>
