<svg width="2560" height="6064" viewBox="0 0 2560 6064" fill="none" xmlns="http://www.w3.org/2000/svg">
<g filter="url(#filter0_dd_4349_45302)">
<path d="M752 3592H532C520.954 3592 512 3600.95 512 3612V3732C512 3743.05 520.954 3752 532 3752H752C763.046 3752 772 3743.05 772 3732V3612C772 3600.95 763.046 3592 752 3592Z" fill="#21BF61"/>
<path d="M532 3594H752C761.941 3594 770 3602.06 770 3612V3732C770 3741.94 761.941 3750 752 3750H532C522.059 3750 514 3741.94 514 3732V3612C514 3602.06 522.059 3594 532 3594Z" stroke="#D4D4D4" stroke-opacity="0.4" stroke-width="4"/>
</g>
<defs>
<filter id="filter0_dd_4349_45302" x="464" y="3584" width="356" height="256" filterUnits="userSpaceOnUse" color-interpolation-filters="sRGB">
<feFlood flood-opacity="0" result="BackgroundImageFix"/>
<feColorMatrix in="SourceAlpha" type="matrix" values="0 0 0 0 0 0 0 0 0 0 0 0 0 0 0 0 0 0 127 0" result="hardAlpha"/>
<feMorphology radius="8" operator="erode" in="SourceAlpha" result="effect1_dropShadow_4349_45302"/>
<feOffset dy="16"/>
<feGaussianBlur stdDeviation="12"/>
<feColorMatrix type="matrix" values="0 0 0 0 0 0 0 0 0 0 0 0 0 0 0 0 0 0 0.05 0"/>
<feBlend mode="normal" in2="BackgroundImageFix" result="effect1_dropShadow_4349_45302"/>
<feColorMatrix in="SourceAlpha" type="matrix" values="0 0 0 0 0 0 0 0 0 0 0 0 0 0 0 0 0 0 127 0" result="hardAlpha"/>
<feMorphology radius="12" operator="erode" in="SourceAlpha" result="effect2_dropShadow_4349_45302"/>
<feOffset dy="40"/>
<feGaussianBlur stdDeviation="30"/>
<feColorMatrix type="matrix" values="0 0 0 0 0 0 0 0 0 0 0 0 0 0 0 0 0 0 0.1 0"/>
<feBlend mode="normal" in2="effect1_dropShadow_4349_45302" result="effect2_dropShadow_4349_45302"/>
<feBlend mode="normal" in="SourceGraphic" in2="effect2_dropShadow_4349_45302" result="shape"/>
</filter>
</defs>
</svg>
