<svg width="2560" height="6064" viewBox="0 0 2560 6064" fill="none" xmlns="http://www.w3.org/2000/svg">
<path d="M529 2988C540 2988 549 2997 549 3008V3044C549 3051.5 544.8 3058.1 538.7 3061.5C544.9 3064.9 549 3071.5 549 3079V3115C549 3122.5 544.8 3129.1 538.7 3132.5C544.9 3135.9 549 3142.5 549 3150V3186C549 3197 540 3206 529 3206H493C482 3206 473 3197 473 3186V3150C473 3142.5 477.2 3135.9 483.3 3132.5C477.2 3129.1 473 3122.5 473 3115V3079C473 3071.5 477.2 3064.9 483.3 3061.5C477.2 3058.1 473 3051.5 473 3044V3008C473 2997 482 2988 493 2988H529Z" fill="#21BF61" stroke="#21BF61" stroke-width="4" stroke-miterlimit="10"/>
</svg>
