<svg width="2560" height="6064" viewBox="0 0 2560 6064" fill="none" xmlns="http://www.w3.org/2000/svg">
<g filter="url(#filter0_dd_4573_2911)">
<path d="M988.4 3451.62H952.4C941.355 3451.62 932.4 3460.58 932.4 3471.62V3507.62C932.4 3518.67 941.355 3527.62 952.4 3527.62H988.4C999.446 3527.62 1008.4 3518.67 1008.4 3507.62V3471.62C1008.4 3460.58 999.446 3451.62 988.4 3451.62Z" fill="#21BF61"/>
<path d="M952.4 3453.62H988.4C998.342 3453.62 1006.4 3461.68 1006.4 3471.62V3507.62C1006.4 3517.56 998.342 3525.62 988.4 3525.62H952.4C942.459 3525.62 934.4 3517.56 934.4 3507.62V3471.62C934.4 3461.68 942.459 3453.62 952.4 3453.62Z" stroke="#D4D4D4" stroke-opacity="0.4" stroke-width="4"/>
</g>
<defs>
<filter id="filter0_dd_4573_2911" x="884.4" y="3443.62" width="172" height="172" filterUnits="userSpaceOnUse" color-interpolation-filters="sRGB">
<feFlood flood-opacity="0" result="BackgroundImageFix"/>
<feColorMatrix in="SourceAlpha" type="matrix" values="0 0 0 0 0 0 0 0 0 0 0 0 0 0 0 0 0 0 127 0" result="hardAlpha"/>
<feMorphology radius="8" operator="erode" in="SourceAlpha" result="effect1_dropShadow_4573_2911"/>
<feOffset dy="16"/>
<feGaussianBlur stdDeviation="12"/>
<feColorMatrix type="matrix" values="0 0 0 0 0 0 0 0 0 0 0 0 0 0 0 0 0 0 0.05 0"/>
<feBlend mode="normal" in2="BackgroundImageFix" result="effect1_dropShadow_4573_2911"/>
<feColorMatrix in="SourceAlpha" type="matrix" values="0 0 0 0 0 0 0 0 0 0 0 0 0 0 0 0 0 0 127 0" result="hardAlpha"/>
<feMorphology radius="12" operator="erode" in="SourceAlpha" result="effect2_dropShadow_4573_2911"/>
<feOffset dy="40"/>
<feGaussianBlur stdDeviation="30"/>
<feColorMatrix type="matrix" values="0 0 0 0 0 0 0 0 0 0 0 0 0 0 0 0 0 0 0.1 0"/>
<feBlend mode="normal" in2="effect1_dropShadow_4573_2911" result="effect2_dropShadow_4573_2911"/>
<feBlend mode="normal" in="SourceGraphic" in2="effect2_dropShadow_4573_2911" result="shape"/>
</filter>
</defs>
</svg>
