<svg width="2560" height="6064" viewBox="0 0 2560 6064" fill="none" xmlns="http://www.w3.org/2000/svg">
<g filter="url(#filter0_dd_4633_1524)">
<path d="M884 3417.04H848C836.954 3417.04 828 3425.99 828 3437.04V3473.04C828 3484.08 836.954 3493.04 848 3493.04H884C895.046 3493.04 904 3484.08 904 3473.04V3437.04C904 3425.99 895.046 3417.04 884 3417.04Z" fill="#21BF61"/>
<path d="M848 3419.04H884C893.941 3419.04 902 3427.09 902 3437.04V3473.04C902 3482.98 893.941 3491.04 884 3491.04H848C838.059 3491.04 830 3482.98 830 3473.04V3437.04C830 3427.09 838.059 3419.04 848 3419.04Z" stroke="#21BF61" stroke-width="4"/>
</g>
<defs>
<filter id="filter0_dd_4633_1524" x="780" y="3409.04" width="172" height="172" filterUnits="userSpaceOnUse" color-interpolation-filters="sRGB">
<feFlood flood-opacity="0" result="BackgroundImageFix"/>
<feColorMatrix in="SourceAlpha" type="matrix" values="0 0 0 0 0 0 0 0 0 0 0 0 0 0 0 0 0 0 127 0" result="hardAlpha"/>
<feMorphology radius="8" operator="erode" in="SourceAlpha" result="effect1_dropShadow_4633_1524"/>
<feOffset dy="16"/>
<feGaussianBlur stdDeviation="12"/>
<feColorMatrix type="matrix" values="0 0 0 0 0 0 0 0 0 0 0 0 0 0 0 0 0 0 0.05 0"/>
<feBlend mode="normal" in2="BackgroundImageFix" result="effect1_dropShadow_4633_1524"/>
<feColorMatrix in="SourceAlpha" type="matrix" values="0 0 0 0 0 0 0 0 0 0 0 0 0 0 0 0 0 0 127 0" result="hardAlpha"/>
<feMorphology radius="12" operator="erode" in="SourceAlpha" result="effect2_dropShadow_4633_1524"/>
<feOffset dy="40"/>
<feGaussianBlur stdDeviation="30"/>
<feColorMatrix type="matrix" values="0 0 0 0 0 0 0 0 0 0 0 0 0 0 0 0 0 0 0.1 0"/>
<feBlend mode="normal" in2="effect1_dropShadow_4633_1524" result="effect2_dropShadow_4633_1524"/>
<feBlend mode="normal" in="SourceGraphic" in2="effect2_dropShadow_4633_1524" result="shape"/>
</filter>
</defs>
</svg>
