<svg width="2560" height="6064" viewBox="0 0 2560 6064" fill="none" xmlns="http://www.w3.org/2000/svg">
<g filter="url(#filter0_dd_4349_45302)">
<path d="M1664.4 3154.8V3274.8C1664.4 3285.85 1673.35 3294.8 1684.4 3294.8H1804.4C1815.45 3294.8 1824.4 3285.85 1824.4 3274.8V3154.8C1824.4 3143.75 1815.45 3134.8 1804.4 3134.8H1684.4C1673.35 3134.8 1664.4 3143.75 1664.4 3154.8Z" fill="#21BF61"/>
<path d="M1666.4 3274.8V3154.8C1666.4 3144.86 1674.46 3136.8 1684.4 3136.8H1804.4C1814.34 3136.8 1822.4 3144.86 1822.4 3154.8V3274.8C1822.4 3284.74 1814.34 3292.8 1804.4 3292.8H1684.4C1674.46 3292.8 1666.4 3284.74 1666.4 3274.8Z" stroke="#D4D4D4" stroke-opacity="0.4" stroke-width="4"/>
</g>
<defs>
<filter id="filter0_dd_4349_45302" x="1616.4" y="3126.8" width="256" height="256" filterUnits="userSpaceOnUse" color-interpolation-filters="sRGB">
<feFlood flood-opacity="0" result="BackgroundImageFix"/>
<feColorMatrix in="SourceAlpha" type="matrix" values="0 0 0 0 0 0 0 0 0 0 0 0 0 0 0 0 0 0 127 0" result="hardAlpha"/>
<feMorphology radius="8" operator="erode" in="SourceAlpha" result="effect1_dropShadow_4349_45302"/>
<feOffset dy="16"/>
<feGaussianBlur stdDeviation="12"/>
<feColorMatrix type="matrix" values="0 0 0 0 0 0 0 0 0 0 0 0 0 0 0 0 0 0 0.05 0"/>
<feBlend mode="normal" in2="BackgroundImageFix" result="effect1_dropShadow_4349_45302"/>
<feColorMatrix in="SourceAlpha" type="matrix" values="0 0 0 0 0 0 0 0 0 0 0 0 0 0 0 0 0 0 127 0" result="hardAlpha"/>
<feMorphology radius="12" operator="erode" in="SourceAlpha" result="effect2_dropShadow_4349_45302"/>
<feOffset dy="40"/>
<feGaussianBlur stdDeviation="30"/>
<feColorMatrix type="matrix" values="0 0 0 0 0 0 0 0 0 0 0 0 0 0 0 0 0 0 0.1 0"/>
<feBlend mode="normal" in2="effect1_dropShadow_4349_45302" result="effect2_dropShadow_4349_45302"/>
<feBlend mode="normal" in="SourceGraphic" in2="effect2_dropShadow_4349_45302" result="shape"/>
</filter>
</defs>
</svg>
