<svg width="2560" height="6064" viewBox="0 0 2560 6064" fill="none" xmlns="http://www.w3.org/2000/svg">
<g filter="url(#filter0_dd_4437_70205)">
<path d="M1465 3733V3853C1465 3864.05 1473.95 3873 1485 3873H1605C1616.05 3873 1625 3864.05 1625 3853V3733C1625 3721.95 1616.05 3713 1605 3713H1485C1473.95 3713 1465 3721.95 1465 3733Z" fill="#21BF61"/>
<path d="M1467 3853V3733C1467 3723.06 1475.06 3715 1485 3715H1605C1614.94 3715 1623 3723.06 1623 3733V3853C1623 3862.94 1614.94 3871 1605 3871H1485C1475.06 3871 1467 3862.94 1467 3853Z" stroke="#D4D4D4" stroke-opacity="0.4" stroke-width="4"/>
</g>
<defs>
<filter id="filter0_dd_4437_70205" x="1417" y="3705" width="256" height="256" filterUnits="userSpaceOnUse" color-interpolation-filters="sRGB">
<feFlood flood-opacity="0" result="BackgroundImageFix"/>
<feColorMatrix in="SourceAlpha" type="matrix" values="0 0 0 0 0 0 0 0 0 0 0 0 0 0 0 0 0 0 127 0" result="hardAlpha"/>
<feMorphology radius="8" operator="erode" in="SourceAlpha" result="effect1_dropShadow_4437_70205"/>
<feOffset dy="16"/>
<feGaussianBlur stdDeviation="12"/>
<feColorMatrix type="matrix" values="0 0 0 0 0 0 0 0 0 0 0 0 0 0 0 0 0 0 0.05 0"/>
<feBlend mode="normal" in2="BackgroundImageFix" result="effect1_dropShadow_4437_70205"/>
<feColorMatrix in="SourceAlpha" type="matrix" values="0 0 0 0 0 0 0 0 0 0 0 0 0 0 0 0 0 0 127 0" result="hardAlpha"/>
<feMorphology radius="12" operator="erode" in="SourceAlpha" result="effect2_dropShadow_4437_70205"/>
<feOffset dy="40"/>
<feGaussianBlur stdDeviation="30"/>
<feColorMatrix type="matrix" values="0 0 0 0 0 0 0 0 0 0 0 0 0 0 0 0 0 0 0.1 0"/>
<feBlend mode="normal" in2="effect1_dropShadow_4437_70205" result="effect2_dropShadow_4437_70205"/>
<feBlend mode="normal" in="SourceGraphic" in2="effect2_dropShadow_4437_70205" result="shape"/>
</filter>
</defs>
</svg>
