<svg width="2560" height="6064" viewBox="0 0 2560 6064" fill="none" xmlns="http://www.w3.org/2000/svg">
<g filter="url(#filter0_dd_4349_45302)">
<path d="M1496.4 3760V3792.4C1496.4 3803.44 1505.35 3812.4 1516.4 3812.4H1636.4C1647.45 3812.4 1656.4 3803.44 1656.4 3792.4V3760C1656.4 3748.95 1647.45 3740 1636.4 3740H1516.4C1505.35 3740 1496.4 3748.95 1496.4 3760Z" fill="#21BF61"/>
<path d="M1498.4 3792.4V3760C1498.4 3750.06 1506.46 3742 1516.4 3742H1636.4C1646.34 3742 1654.4 3750.06 1654.4 3760V3792.4C1654.4 3802.34 1646.34 3810.4 1636.4 3810.4H1516.4C1506.46 3810.4 1498.4 3802.34 1498.4 3792.4Z" stroke="#D4D4D4" stroke-opacity="0.4" stroke-width="4"/>
</g>
<defs>
<filter id="filter0_dd_4349_45302" x="1448.4" y="3732" width="256" height="168.398" filterUnits="userSpaceOnUse" color-interpolation-filters="sRGB">
<feFlood flood-opacity="0" result="BackgroundImageFix"/>
<feColorMatrix in="SourceAlpha" type="matrix" values="0 0 0 0 0 0 0 0 0 0 0 0 0 0 0 0 0 0 127 0" result="hardAlpha"/>
<feMorphology radius="8" operator="erode" in="SourceAlpha" result="effect1_dropShadow_4349_45302"/>
<feOffset dy="16"/>
<feGaussianBlur stdDeviation="12"/>
<feColorMatrix type="matrix" values="0 0 0 0 0 0 0 0 0 0 0 0 0 0 0 0 0 0 0.05 0"/>
<feBlend mode="normal" in2="BackgroundImageFix" result="effect1_dropShadow_4349_45302"/>
<feColorMatrix in="SourceAlpha" type="matrix" values="0 0 0 0 0 0 0 0 0 0 0 0 0 0 0 0 0 0 127 0" result="hardAlpha"/>
<feMorphology radius="12" operator="erode" in="SourceAlpha" result="effect2_dropShadow_4349_45302"/>
<feOffset dy="40"/>
<feGaussianBlur stdDeviation="30"/>
<feColorMatrix type="matrix" values="0 0 0 0 0 0 0 0 0 0 0 0 0 0 0 0 0 0 0.1 0"/>
<feBlend mode="normal" in2="effect1_dropShadow_4349_45302" result="effect2_dropShadow_4349_45302"/>
<feBlend mode="normal" in="SourceGraphic" in2="effect2_dropShadow_4349_45302" result="shape"/>
</filter>
</defs>
</svg>
