<svg width="2560" height="6064" viewBox="0 0 2560 6064" fill="none" xmlns="http://www.w3.org/2000/svg">
<g filter="url(#filter0_dd_4349_45302)">
<path d="M2426.4 5489.2V5452.4L2307.2 5394.4C2297.2 5389.6 2285.2 5393.6 2280.4 5403.6L2184.4 5601.6C2179.6 5611.6 2183.6 5623.6 2193.6 5628.4L2312 5686C2380.4 5647.2 2426.4 5573.6 2426.4 5489.2Z" fill="#21BF61"/>
<path d="M2282.2 5404.47C2286.51 5395.5 2297.29 5391.87 2306.32 5396.2V5396.2L2424.4 5453.65V5489.2C2424.4 5572.48 2379.22 5645.15 2311.92 5683.74L2194.47 5626.6L2194.46 5626.6L2194.05 5626.39C2185.39 5621.96 2181.93 5611.37 2186.2 5602.47L2186.2 5602.47L2282.2 5404.47L2282.2 5404.47Z" stroke="#D4D4D4" stroke-opacity="0.4" stroke-width="4"/>
</g>
<defs>
<filter id="filter0_dd_4349_45302" x="2134.38" y="5384.38" width="340.024" height="389.625" filterUnits="userSpaceOnUse" color-interpolation-filters="sRGB">
<feFlood flood-opacity="0" result="BackgroundImageFix"/>
<feColorMatrix in="SourceAlpha" type="matrix" values="0 0 0 0 0 0 0 0 0 0 0 0 0 0 0 0 0 0 127 0" result="hardAlpha"/>
<feMorphology radius="8" operator="erode" in="SourceAlpha" result="effect1_dropShadow_4349_45302"/>
<feOffset dy="16"/>
<feGaussianBlur stdDeviation="12"/>
<feColorMatrix type="matrix" values="0 0 0 0 0 0 0 0 0 0 0 0 0 0 0 0 0 0 0.05 0"/>
<feBlend mode="normal" in2="BackgroundImageFix" result="effect1_dropShadow_4349_45302"/>
<feColorMatrix in="SourceAlpha" type="matrix" values="0 0 0 0 0 0 0 0 0 0 0 0 0 0 0 0 0 0 127 0" result="hardAlpha"/>
<feMorphology radius="12" operator="erode" in="SourceAlpha" result="effect2_dropShadow_4349_45302"/>
<feOffset dy="40"/>
<feGaussianBlur stdDeviation="30"/>
<feColorMatrix type="matrix" values="0 0 0 0 0 0 0 0 0 0 0 0 0 0 0 0 0 0 0.1 0"/>
<feBlend mode="normal" in2="effect1_dropShadow_4349_45302" result="effect2_dropShadow_4349_45302"/>
<feBlend mode="normal" in="SourceGraphic" in2="effect2_dropShadow_4349_45302" result="shape"/>
</filter>
</defs>
</svg>
