<svg width="2560" height="6064" viewBox="0 0 2560 6064" fill="none" xmlns="http://www.w3.org/2000/svg">
<g filter="url(#filter0_dd_4437_70205)">
<path d="M2170.56 4536.27L2141.14 4515.52C2132.11 4509.16 2119.63 4511.32 2113.27 4520.35L2092.52 4549.77C2086.16 4558.8 2088.32 4571.28 2097.35 4577.64L2126.77 4598.38C2135.8 4604.75 2148.27 4602.59 2154.64 4593.56L2175.38 4564.14C2181.75 4555.11 2179.59 4542.63 2170.56 4536.27Z" fill="#21BF61"/>
<path d="M2139.98 4517.16L2169.41 4537.9C2177.53 4543.63 2179.47 4554.86 2173.75 4562.98L2153 4592.41C2147.28 4600.53 2136.05 4602.48 2127.92 4596.75L2098.5 4576.01C2090.37 4570.28 2088.43 4559.05 2094.16 4550.92L2114.9 4521.5C2120.63 4513.37 2131.86 4511.43 2139.98 4517.16Z" stroke="#D4D4D4" stroke-opacity="0.4" stroke-width="4"/>
</g>
<defs>
<filter id="filter0_dd_4437_70205" x="2040.87" y="4503.87" width="186.17" height="186.17" filterUnits="userSpaceOnUse" color-interpolation-filters="sRGB">
<feFlood flood-opacity="0" result="BackgroundImageFix"/>
<feColorMatrix in="SourceAlpha" type="matrix" values="0 0 0 0 0 0 0 0 0 0 0 0 0 0 0 0 0 0 127 0" result="hardAlpha"/>
<feMorphology radius="8" operator="erode" in="SourceAlpha" result="effect1_dropShadow_4437_70205"/>
<feOffset dy="16"/>
<feGaussianBlur stdDeviation="12"/>
<feColorMatrix type="matrix" values="0 0 0 0 0 0 0 0 0 0 0 0 0 0 0 0 0 0 0.05 0"/>
<feBlend mode="normal" in2="BackgroundImageFix" result="effect1_dropShadow_4437_70205"/>
<feColorMatrix in="SourceAlpha" type="matrix" values="0 0 0 0 0 0 0 0 0 0 0 0 0 0 0 0 0 0 127 0" result="hardAlpha"/>
<feMorphology radius="12" operator="erode" in="SourceAlpha" result="effect2_dropShadow_4437_70205"/>
<feOffset dy="40"/>
<feGaussianBlur stdDeviation="30"/>
<feColorMatrix type="matrix" values="0 0 0 0 0 0 0 0 0 0 0 0 0 0 0 0 0 0 0.1 0"/>
<feBlend mode="normal" in2="effect1_dropShadow_4437_70205" result="effect2_dropShadow_4437_70205"/>
<feBlend mode="normal" in="SourceGraphic" in2="effect2_dropShadow_4437_70205" result="shape"/>
</filter>
</defs>
</svg>
