<svg width="113" height="113" viewBox="0 0 113 113" fill="none" xmlns="http://www.w3.org/2000/svg">
<g clip-path="url(#clip0_4384_45289)">
<path d="M91.4039 3.83301H21.8844C11.9529 3.83301 3.90186 11.8841 3.90186 21.8156V91.335C3.90186 101.267 11.9529 109.318 21.8844 109.318H91.4039C101.335 109.318 109.386 101.267 109.386 91.335V21.8156C109.386 11.8841 101.335 3.83301 91.4039 3.83301Z" fill="white" stroke="#323232" stroke-width="6.51542" stroke-miterlimit="10"/>
<path d="M20.0303 73.4972L24.6197 74.8084C24.9007 75.6046 25.1817 76.4007 25.5563 77.15L23.2616 81.3179C23.1211 81.5989 23.168 81.9268 23.4021 82.1609L27.4764 86.2352C27.4764 86.2352 28.0384 86.5162 28.3194 86.3757L32.4873 84.081C33.2366 84.4556 33.9859 84.7834 34.8289 85.0176L36.1401 89.607C36.2338 89.9349 36.5148 90.1222 36.8426 90.1222H42.6028C42.9306 90.1222 43.2116 89.888 43.3053 89.607L44.6165 85.0176C45.4127 84.7366 46.2088 84.4556 46.9581 84.081L51.1261 86.3757C51.407 86.5162 51.7349 86.4694 51.969 86.2352L56.0433 82.1609C56.0433 82.1609 56.3243 81.5989 56.1838 81.3179L53.8891 77.15C54.2637 76.4007 54.5915 75.6514 54.8257 74.8084L59.4151 73.4972C59.743 73.4035 59.9303 73.1225 59.9303 72.7947V67.0345C59.9303 66.7067 59.6961 66.4257 59.4151 66.332L54.8257 65.0208C54.5447 64.2246 54.2637 63.4285 53.8891 62.6792L56.1838 58.5113C56.3243 58.2303 56.2775 57.9025 56.0433 57.6683L51.969 53.594C51.969 53.594 51.407 53.313 51.1261 53.4535L46.9581 55.7482C46.2088 55.3736 45.4595 55.0458 44.6165 54.8116L43.3053 50.2222C43.2116 49.8944 42.9306 49.707 42.6028 49.707H36.8426C36.5148 49.707 36.2338 49.9412 36.1401 50.2222L34.8289 54.8116C34.0327 55.0926 33.2366 55.3736 32.4873 55.7482L28.3194 53.4535C28.0384 53.313 27.7106 53.3598 27.4764 53.594L23.4021 57.6683C23.4021 57.6683 23.1211 58.2303 23.2616 58.5113L25.5563 62.6792C25.1817 63.4285 24.8539 64.1778 24.6197 65.0208L20.0303 66.332C19.7025 66.4257 19.5151 66.7067 19.5151 67.0345V72.7947C19.5151 73.1225 19.7493 73.4035 20.0303 73.4972ZM39.6993 62.0236C44.0546 62.0236 47.6137 65.5827 47.6137 69.938C47.6137 74.2933 44.0546 77.8525 39.6993 77.8525C35.344 77.8525 31.7849 74.2933 31.7849 69.938C31.7849 65.5827 35.344 62.0236 39.6993 62.0236Z" fill="#323232"/>
<path d="M61.5221 61.0877L67.1418 62.399C67.4696 62.4926 67.7974 62.3522 67.9379 62.0712L70.2326 57.9032C71.0756 57.8564 71.8717 57.7159 72.7147 57.4817L76.227 60.6662C76.4612 60.9004 76.8358 60.9004 77.07 60.7599L81.9872 57.7159C82.2682 57.5286 82.4087 57.2007 82.315 56.9198L81.0038 52.3303C81.5657 51.6747 82.034 50.9722 82.4555 50.2698L87.1855 50.0356C87.5133 50.0356 87.7943 49.8014 87.8411 49.4736L89.1524 43.8539C89.246 43.5261 89.1055 43.1983 88.8245 43.0578L84.6566 40.7631C84.6098 39.9201 84.4693 39.124 84.2351 38.281L87.4196 34.7687C87.6538 34.5345 87.6538 34.1599 87.5133 33.9257L84.4693 29.0085C84.2819 28.7275 83.9541 28.587 83.6731 28.6807L79.0837 29.9919C78.4281 29.43 77.7256 28.9617 77.0231 28.5402L76.789 23.8103C76.789 23.4824 76.5548 23.2014 76.227 23.1546L70.6073 21.8433C70.2795 21.7497 69.9517 21.8902 69.8112 22.1712L67.5164 26.3391C66.6735 26.386 65.8774 26.5264 65.0344 26.7606L61.5221 23.5761C61.2879 23.3419 60.9133 23.3419 60.6791 23.4824L55.7619 26.5264C55.4809 26.7138 55.3404 27.0416 55.434 27.3226L56.7453 31.912C56.1833 32.5676 55.715 33.2701 55.2467 33.9726L50.5168 34.2067C50.189 34.2067 49.908 34.4409 49.8612 34.7687L48.5499 40.3884C48.4562 40.7162 48.5967 41.0441 48.8777 41.1845L53.0457 43.4793C53.0925 44.3222 53.233 45.1183 53.4671 45.9613M73.6981 39.124C75.3372 41.7933 74.5411 45.2588 71.8717 46.8979C69.2024 48.537 65.7369 47.7409 64.0978 45.0715C62.4587 42.4022 63.2548 38.9367 65.9242 37.2976C68.5936 35.6585 72.0591 36.4546 73.6981 39.124Z" stroke="#323232" stroke-width="4.6831" stroke-miterlimit="10"/>
</g>
<defs>
<clipPath id="clip0_4384_45289">
<rect width="112" height="112" fill="white" transform="translate(0.642578 0.580566)"/>
</clipPath>
</defs>
</svg>
