<svg width="113" height="113" viewBox="0 0 113 113" fill="none" xmlns="http://www.w3.org/2000/svg">
<g clip-path="url(#clip0_4384_45249)">
<path d="M91.4039 4.04639H21.8844C11.9529 4.04639 3.90186 12.0974 3.90186 22.0289V91.5484C3.90186 101.48 11.9529 109.531 21.8844 109.531H91.4039C101.335 109.531 109.386 101.48 109.386 91.5484V22.0289C109.386 12.0974 101.335 4.04639 91.4039 4.04639Z" fill="white" stroke="#323232" stroke-width="6.51542" stroke-miterlimit="10"/>
<path d="M81.2936 29.2681V80.7399C81.2936 83.8673 78.6874 86.4083 75.56 86.3431C72.4977 86.3431 70.0219 83.737 70.0219 80.6096V62.7573H63.1807C62.1382 62.7573 61.2261 61.8452 61.2261 60.8027V43.0156C61.2261 34.4153 68.2627 27.3135 76.9282 27.3135H79.3389C80.4465 27.3135 81.2936 28.1605 81.2936 29.2681Z" fill="#323232"/>
<path d="M52.0357 29.2681V48.4234C52.0357 51.4857 50.2114 54.157 47.6704 55.4601V80.7399C47.6704 83.8021 45.1294 86.3431 42.002 86.3431C38.8746 86.3431 36.3336 83.8021 36.3336 80.7399V55.4601C33.7926 54.157 31.9683 51.5508 31.9683 48.4234V29.2681C31.9683 28.2256 32.8153 27.3135 33.9229 27.3135H36.2033V40.0185C36.2033 40.8004 36.8548 41.5171 37.7018 41.5171H38.2882C39.0701 41.5171 39.7868 40.8655 39.7868 40.0185V27.3135H44.2172V40.0185C44.2172 40.8004 44.8688 41.5171 45.7158 41.5171H46.3022C47.084 41.5171 47.8007 40.8655 47.8007 40.0185V27.3135H50.0811C51.1236 27.3135 52.0357 28.1605 52.0357 29.2681Z" fill="#323232"/>
</g>
<defs>
<clipPath id="clip0_4384_45249">
<rect width="112" height="112" fill="white" transform="translate(0.642578 0.792969)"/>
</clipPath>
</defs>
</svg>
