<svg width="113" height="113" viewBox="0 0 113 113" fill="none" xmlns="http://www.w3.org/2000/svg">
<g clip-path="url(#clip0_4384_45233)">
<path d="M19.7363 4.14014H93.5488C102.161 4.14014 109.143 11.122 109.143 19.7339V93.5464C109.143 102.158 102.161 109.14 93.5488 109.14H19.7363C11.1244 109.14 4.14258 102.158 4.14258 93.5464V19.7339C4.14258 11.122 11.1244 4.14014 19.7363 4.14014Z" fill="white" stroke="#323232" stroke-width="7"/>
<path d="M71.0015 49.0642C75.9824 49.0642 79.9948 45.0518 79.9948 40.071C79.9948 35.0901 75.9824 31.0778 71.0015 31.0778C66.0207 31.0778 62.0083 35.0901 62.0083 40.071C62.0083 45.0518 66.0207 49.0642 71.0015 49.0642ZM71.0015 33.8449C74.4605 33.8449 77.2276 36.612 77.2276 40.071C77.2276 43.5299 74.4605 46.297 71.0015 46.297C67.5426 46.297 64.7755 43.5299 64.7755 40.071C64.7755 36.612 67.5426 33.8449 71.0015 33.8449ZM31.3623 34.3292C31.3623 30.4552 34.5445 27.2729 38.4185 27.2729C42.2925 27.2729 45.4747 30.4552 45.4747 34.3292C45.4747 38.2032 42.2925 41.3854 38.4185 41.3854C34.5445 41.3854 31.3623 38.2032 31.3623 34.3292ZM98.2579 65.8746H86.5667V86.0055H83.7996V63.5917C83.7996 57.9882 79.2338 53.4916 73.6995 53.4916H70.1022C64.4988 53.4916 60.0022 58.0574 60.0022 63.5917V86.0055H57.235V65.8746H15.0361V63.1074H27.004V54.2526C27.004 48.3724 31.7773 43.5991 37.6575 43.5991H39.2486C45.1288 43.5991 49.9021 48.3724 49.9021 54.2526V63.1074H57.3042C57.5809 56.2587 63.2536 50.7245 70.1714 50.7245H73.7687C80.6865 50.7245 86.3592 56.2587 86.6359 63.1074H98.3271V65.8746H98.2579Z" fill="#323232"/>
</g>
<defs>
<clipPath id="clip0_4384_45233">
<rect width="112" height="112" fill="white" transform="translate(0.642578 0.642578)"/>
</clipPath>
</defs>
</svg>
