<svg width="113" height="113" viewBox="0 0 113 113" fill="none" xmlns="http://www.w3.org/2000/svg">
<g clip-path="url(#clip0_4384_45294)">
<path d="M91.4039 3.89502H21.8844C11.9529 3.89502 3.90186 11.9461 3.90186 21.8776V91.397C3.90186 101.329 11.9529 109.38 21.8844 109.38H91.4039C101.335 109.38 109.386 101.329 109.386 91.397V21.8776C109.386 11.9461 101.335 3.89502 91.4039 3.89502Z" fill="white" stroke="#323232" stroke-width="6.51542" stroke-miterlimit="10"/>
<path d="M56.6164 37.7944C61.3467 37.7944 65.1408 33.9511 65.1408 29.27C65.1408 24.589 61.2974 20.7456 56.6164 20.7456C51.9353 20.7456 48.092 24.589 48.092 29.27C48.092 33.9511 51.9353 37.7944 56.6164 37.7944Z" fill="#323232"/>
<path d="M69.4308 80.4653H65.144V50.5559C65.144 48.1907 63.2223 46.269 60.8571 46.269H43.759C41.3939 46.269 39.4722 48.1907 39.4722 50.5559C39.4722 52.921 41.3939 54.8427 43.759 54.8427H48.0459V80.4653H43.759C41.3939 80.4653 39.4722 82.3869 39.4722 84.7521C39.4722 87.1173 41.3939 89.0389 43.759 89.0389H69.3815C71.7467 89.0389 73.6684 87.1173 73.6684 84.7521C73.6684 82.3869 71.7467 80.4653 69.3815 80.4653H69.4308Z" fill="#323232"/>
</g>
<defs>
<clipPath id="clip0_4384_45294">
<rect width="112" height="112" fill="white" transform="translate(0.642578 0.642578)"/>
</clipPath>
</defs>
</svg>
