<svg width="111" height="113" viewBox="0 0 111 113" fill="none" xmlns="http://www.w3.org/2000/svg">
<g clip-path="url(#clip0_4384_45245)">
<path d="M19.2217 3.62744H91.4727C100.028 3.62744 106.965 10.5638 106.965 19.1196V91.3706C106.965 99.9264 100.028 106.863 91.4727 106.863H19.2217C10.6659 106.863 3.72949 99.9264 3.72949 91.3706V19.1196C3.72949 10.5638 10.6659 3.62744 19.2217 3.62744Z" fill="white" stroke="#323232" stroke-width="6.39508"/>
<path d="M78.6857 41.747H74.2916V21.8238C74.2916 19.2772 72.2443 17.23 69.6977 17.23C67.1512 17.23 65.1039 19.2772 65.1039 21.8238V41.747H44.6314V21.8238C44.6314 19.2772 42.5842 17.23 40.0376 17.23C37.491 17.23 35.4438 19.2772 35.4438 21.8238V41.747H31.0497C27.854 41.747 25.2075 44.3435 25.2075 47.5892V57.0265C25.2075 71.7068 36.5922 83.7406 51.0228 84.8391V109.456H58.7125V84.8391C73.1431 83.7905 84.5278 71.7567 84.5278 57.0265V47.5892C84.5278 44.3935 81.9313 41.747 78.6857 41.747Z" fill="#323232"/>
</g>
<defs>
<clipPath id="clip0_4384_45245">
<rect width="109.63" height="112" fill="white" transform="translate(0.527832 0.430176)"/>
</clipPath>
</defs>
</svg>
