<svg width="47" height="48" viewBox="0 0 47 48" fill="none" xmlns="http://www.w3.org/2000/svg">
<rect x="2.46875" y="3.10666" width="42.35" height="42.35" rx="8.47" fill="#323232"/>
<rect x="1.41" y="2.04791" width="44.4675" height="44.4675" rx="9.52875" stroke="white" stroke-opacity="0.4" stroke-width="2.1175"/>
<path fill-rule="evenodd" clip-rule="evenodd" d="M13.8988 14.012C13.6699 14.012 13.4844 14.1976 13.4844 14.4264V23.757H10.9526V24.5858H36.3348V23.757H33.8031V14.4264C33.8031 14.1976 33.6176 14.012 33.3887 14.012H13.8988ZM32.9743 23.757V14.8408H14.3132V23.757H32.9743Z" fill="white"/>
<path d="M20.8854 34.5513C20.8854 33.2988 22.1141 32.0195 23.6437 32.0195C25.1733 32.0195 26.4021 33.2988 26.4021 34.5513H27.2309C27.2309 32.8045 25.5936 31.1907 23.6437 31.1907C21.6938 31.1907 20.0566 32.8045 20.0566 34.5513H20.8854Z" fill="white"/>
<path d="M31.1224 32.0195C29.5928 32.0195 28.3641 33.2988 28.3641 34.5513H27.5352C27.5352 32.8045 29.1725 31.1907 31.1224 31.1907C33.0723 31.1907 34.7096 32.8045 34.7096 34.5513H33.8808C33.8808 33.2988 32.652 32.0195 31.1224 32.0195Z" fill="white"/>
<path d="M13.4067 34.5513C13.4067 33.2988 14.6354 32.0195 16.1651 32.0195C17.6947 32.0195 18.9234 33.2988 18.9234 34.5513H19.7522C19.7522 32.8045 18.1149 31.1907 16.1651 31.1907C14.2152 31.1907 12.5779 32.8045 12.5779 34.5513H13.4067Z" fill="white"/>
<path fill-rule="evenodd" clip-rule="evenodd" d="M14.2776 28.8172C14.2776 27.7748 15.1226 26.9298 16.1651 26.9298C17.2075 26.9298 18.0525 27.7748 18.0525 28.8172C18.0525 29.8597 17.2075 30.7047 16.1651 30.7047C15.1226 30.7047 14.2776 29.8597 14.2776 28.8172ZM16.1651 27.7586C15.5804 27.7586 15.1064 28.2325 15.1064 28.8172C15.1064 29.4019 15.5804 29.8759 16.1651 29.8759C16.7497 29.8759 17.2237 29.4019 17.2237 28.8172C17.2237 28.2325 16.7497 27.7586 16.1651 27.7586Z" fill="white"/>
<path fill-rule="evenodd" clip-rule="evenodd" d="M23.6437 26.9298C22.6013 26.9298 21.7563 27.7748 21.7563 28.8172C21.7563 29.8597 22.6013 30.7047 23.6437 30.7047C24.6862 30.7047 25.5312 29.8597 25.5312 28.8172C25.5312 27.7748 24.6862 26.9298 23.6437 26.9298ZM22.5851 28.8172C22.5851 28.2325 23.059 27.7586 23.6437 27.7586C24.2284 27.7586 24.7024 28.2325 24.7024 28.8172C24.7024 29.4019 24.2284 29.8759 23.6437 29.8759C23.059 29.8759 22.5851 29.4019 22.5851 28.8172Z" fill="white"/>
<path fill-rule="evenodd" clip-rule="evenodd" d="M29.2349 28.8172C29.2349 27.7748 30.08 26.9298 31.1224 26.9298C32.1648 26.9298 33.0099 27.7748 33.0099 28.8172C33.0099 29.8597 32.1648 30.7047 31.1224 30.7047C30.08 30.7047 29.2349 29.8597 29.2349 28.8172ZM31.1224 27.7586C30.5377 27.7586 30.0638 28.2325 30.0638 28.8172C30.0638 29.4019 30.5377 29.8759 31.1224 29.8759C31.7071 29.8759 32.1811 29.4019 32.1811 28.8172C32.1811 28.2325 31.7071 27.7586 31.1224 27.7586Z" fill="white"/>
</svg>
